<?xml version="1.0" encoding="utf-8"?>
<!-- Generator: Adobe Illustrator 25.2.0, SVG Export Plug-In . SVG Version: 6.00 Build 0)  -->
<svg version="1.1" id="Layer_1" xmlns="http://www.w3.org/2000/svg" xmlns:xlink="http://www.w3.org/1999/xlink" x="0px" y="0px"
	 viewBox="0 0 660 140" style="enable-background:new 0 0 660 140;" xml:space="preserve">
<g id="Group_13_1_" transform="translate(376.635 311.555)">
	<path id="Path_8_1_" d="M-56.31-247.48c0-38.52-27.89-62.24-72.67-62.24H-129c-44.58,0-72.47,23.71-72.47,62.23v0.01l0,0v53.4
		c0,0.21,0.02,0.41,0.03,0.62v1.42c0.01,9.83,7.98,17.8,17.81,17.8h11.61c9.84,0,17.81-7.98,17.81-17.82c0,0,0,0,0-0.01l-0.02-36.66
		v-5.7h0.01v-10.07c-0.17-13.1,9.53-24.23,22.53-25.87c0.87-0.06,1.76-0.09,2.68-0.09c0.96,0,1.88,0.03,2.79,0.09
		c12.81,1.36,22.55,12.12,22.63,24.99l0.02,35.71v15.57c0,0.06,0.01,0.12,0.01,0.18v1.85c0.01,9.83,7.98,17.8,17.82,17.8h11.62
		c9.84,0,17.81-7.97,17.81-17.81c0,0,0-0.01,0-0.01L-56.31-247.48L-56.31-247.48z"/>
	<path id="Path_9_1_" d="M-36.96-236.48c0,38.52,27.89,62.24,72.68,62.24h0.02c44.58,0,72.47-23.71,72.47-62.23v-0.01l0,0v-53.41
		c0-0.21-0.02-0.41-0.03-0.62v-1.42c-0.01-9.83-7.98-17.8-17.81-17.8H78.75c-9.84,0-17.81,7.97-17.81,17.81c0,0,0,0.01,0,0.01
		l0.02,36.66v5.7h-0.01v10.07c0.17,13.1-9.53,24.23-22.53,25.87c-0.87,0.06-1.76,0.09-2.68,0.09c-0.96,0-1.88-0.04-2.79-0.09
		c-12.81-1.36-22.55-12.12-22.63-25l-0.02-35.71v-15.57c0-0.06-0.01-0.12-0.01-0.18v-1.86c-0.01-9.83-7.98-17.8-17.81-17.8h-11.61
		c-9.84,0-17.81,7.97-17.81,17.81c0,0,0,0.01,0,0.01L-36.96-236.48L-36.96-236.48z"/>
	<path id="Path_10_1_" d="M127.55-236.48c0,38.52,27.89,62.24,72.68,62.24h0.02c44.58,0,72.47-23.71,72.47-62.23v-0.01l0,0v-53.41
		c0-0.21-0.02-0.41-0.03-0.62v-1.42c-0.01-9.83-7.98-17.8-17.81-17.8h-11.61c-9.84,0-17.81,7.97-17.81,17.81c0,0,0,0.01,0,0.01
		l0.02,36.66v5.7h-0.01v10.07c0.17,13.1-9.53,24.23-22.53,25.87c-0.87,0.06-1.76,0.09-2.68,0.09c-0.96,0-1.88-0.04-2.79-0.09
		c-12.81-1.36-22.55-12.12-22.63-25l-0.02-35.71v-15.57c0-0.06-0.01-0.12-0.01-0.18v-1.86c-0.01-9.83-7.98-17.8-17.81-17.8h-11.61
		c-9.84,0-17.81,7.97-17.81,17.81c0,0,0,0.01,0,0.01L127.55-236.48L127.55-236.48z"/>
	<path id="Path_11_1_" d="M-273.78-309.72h-74.39c-9.83,0-17.81,7.97-17.81,17.81v99.86c0,9.84,7.97,17.81,17.81,17.81l0,0h12
		c9.84,0,17.81-7.97,17.81-17.81v-0.99c0-9.84,7.97-17.81,17.81-17.81l0,0h19.34c40,0,60.39-20.76,60.39-49.72
		C-220.83-289.91-238.54-309.72-273.78-309.72z M-288.92-241.14h-8.96c-9.84-0.01-17.81-7.99-17.8-17.83
		c0.01-9.82,7.97-17.79,17.8-17.8h8.96c9.84-0.01,17.82,7.96,17.83,17.8c0.01,9.84-7.96,17.82-17.8,17.83
		C-288.9-241.14-288.91-241.14-288.92-241.14z"/>
</g>
</svg>
